<svg width="29" height="28" viewBox="0 0 29 28" fill="none" xmlns="http://www.w3.org/2000/svg">
<path d="M9.83335 25.6666C10.4777 25.6666 11 25.1443 11 24.4999C11 23.8556 10.4777 23.3333 9.83335 23.3333C9.18902 23.3333 8.66669 23.8556 8.66669 24.4999C8.66669 25.1443 9.18902 25.6666 9.83335 25.6666Z" stroke="#FFDCC5" stroke-width="2" stroke-linecap="round" stroke-linejoin="round"/>
<path d="M22.6667 25.6666C23.311 25.6666 23.8333 25.1443 23.8333 24.4999C23.8333 23.8556 23.311 23.3333 22.6667 23.3333C22.0223 23.3333 21.5 23.8556 21.5 24.4999C21.5 25.1443 22.0223 25.6666 22.6667 25.6666Z" stroke="#FFDCC5" stroke-width="2" stroke-linecap="round" stroke-linejoin="round"/>
<path d="M2.89166 2.3916H5.225L8.32833 16.8816C8.44217 17.4123 8.73744 17.8867 9.16333 18.2231C9.58921 18.5595 10.1191 18.737 10.6617 18.7249H22.0717C22.6027 18.7241 23.1176 18.5421 23.5312 18.2091C23.9448 17.876 24.2325 17.4119 24.3467 16.8933L26.2717 8.22493H6.47333" stroke="#FFDCC5" stroke-width="2" stroke-linecap="round" stroke-linejoin="round"/>
</svg>
