<svg width="25" height="24" viewBox="0 0 25 24" fill="none" xmlns="http://www.w3.org/2000/svg">
<path d="M12.5 22C18.0228 22 22.5 17.5228 22.5 12C22.5 6.47715 18.0228 2 12.5 2C6.97715 2 2.5 6.47715 2.5 12C2.5 17.5228 6.97715 22 12.5 22Z" fill="#1877F2"/>
<path fill-rule="evenodd" clip-rule="evenodd" d="M15.1575 8.4789C14.8459 8.41655 14.4249 8.37 14.1602 8.37C13.4434 8.37 13.3968 8.68165 13.3968 9.18035V10.0681H15.1887L15.0325 11.9068H13.3968V17.5H11.1531V11.9068H10V10.0681H11.1531V8.93065C11.1531 7.37265 11.8854 6.5 13.7239 6.5C14.3626 6.5 14.8301 6.5935 15.4376 6.71815L15.1575 8.4789Z" fill="white"/>
</svg>
