<svg width="25" height="24" viewBox="0 0 25 24" fill="none" xmlns="http://www.w3.org/2000/svg">
<path d="M23.0011 12.2332C23.0011 11.3698 22.9296 10.7398 22.7749 10.0865H12.7153V13.9831H18.6201C18.5011 14.9515 17.8582 16.4098 16.4296 17.3898L16.4095 17.5203L19.5902 19.935L19.8106 19.9565C21.8344 18.1249 23.0011 15.4298 23.0011 12.2332Z" fill="#4285F4"/>
<path d="M12.7147 22.4998C15.6076 22.4998 18.0361 21.5665 19.81 19.9564L16.429 17.3897C15.5242 18.0081 14.3099 18.4397 12.7147 18.4397C9.88145 18.4397 7.47669 16.6081 6.61947 14.0764L6.49382 14.0869L3.18656 16.5952L3.14331 16.7131C4.9052 20.143 8.52425 22.4998 12.7147 22.4998Z" fill="#34A853"/>
<path d="M6.61973 14.0767C6.39354 13.4234 6.26264 12.7234 6.26264 12.0001C6.26264 11.2767 6.39354 10.5767 6.60783 9.9234L6.60183 9.7842L3.25312 7.2356L3.14356 7.28667C2.4174 8.71005 2.00073 10.3084 2.00073 12.0001C2.00073 13.6917 2.4174 15.29 3.14356 16.7134L6.61973 14.0767Z" fill="#FBBC05"/>
<path d="M12.7148 5.55997C14.7267 5.55997 16.0838 6.41164 16.8577 7.12335L19.8814 4.23C18.0244 2.53834 15.6076 1.5 12.7148 1.5C8.52425 1.5 4.9052 3.85665 3.14331 7.28662L6.60759 9.92332C7.47672 7.39166 9.88145 5.55997 12.7148 5.55997Z" fill="#EB4335"/>
</svg>
