<svg xmlns="http://www.w3.org/2000/svg" width="16" height="14" viewBox="0 0 16 14" fill="none">
<path d="M14.2588 1.25478C13.8643 0.855993 13.3945 0.539689 12.8766 0.324266C12.3587 0.108851 11.8031 -0.00137924 11.2422 1.3026e-05C10.6813 -0.00137924 10.1257 0.108851 9.60784 0.324266C9.08995 0.539689 8.62011 0.855993 8.22563 1.25478L7.98499 1.50401L7.74435 1.26336C6.94655 0.46565 5.86455 0.0175023 4.73636 0.0175023C3.60816 0.0175023 2.52617 0.46565 1.72837 1.26336C0.941014 2.06662 0.5 3.14657 0.5 4.27136C0.5 5.39616 0.941014 6.47612 1.72837 7.27933L7.54668 13.1148C7.66752 13.2356 7.83133 13.3034 8.00218 13.3034C8.17295 13.3034 8.33684 13.2356 8.45768 13.1148L14.276 7.27933C15.0637 6.47345 15.5032 5.3904 15.5 4.26354C15.4968 3.13667 15.051 2.05616 14.2588 1.25478Z" fill="#BA1A1A"/>
</svg>