<svg width="237" height="236" viewBox="0 0 237 236" fill="none" xmlns="http://www.w3.org/2000/svg">
<g filter="url(#filter0_d_12_96)">
<rect x="18.5" y="14" width="200" height="200" rx="100" fill="#FBEBE1" shape-rendering="crispEdges"/>
<rect x="19" y="14.5" width="199" height="199" rx="99.5" stroke="#D6C3B7" shape-rendering="crispEdges"/>
<g filter="url(#filter1_d_12_96)">
<mask id="path-3-outside-1_12_96" maskUnits="userSpaceOnUse" x="45.5" y="90" width="92" height="71" fill="black">
<rect fill="white" x="45.5" y="90" width="92" height="71"/>
<path d="M106.148 142.928C108.644 142.928 110.372 141.584 111.332 138.896C112.292 136.144 112.772 131.696 112.772 125.552L112.964 102.032C112.964 98.64 113.732 96.176 115.268 94.64C116.868 93.04 119.588 92.24 123.428 92.24C125.796 92.24 127.684 92.624 129.092 93.392C130.564 94.16 131.812 95.664 132.836 97.904C133.86 100.144 134.564 103.184 134.948 107.024C135.332 110.864 135.524 115.952 135.524 122.288C135.524 126.064 135.204 129.584 134.564 132.848C133.924 136.112 133.06 138.96 131.972 141.392C130.884 143.824 129.572 146.032 128.036 148.016C126.564 149.936 124.996 151.536 123.332 152.816C121.668 154.096 119.908 155.184 118.052 156.08C116.196 156.912 114.372 157.52 112.58 157.904C110.852 158.224 109.156 158.384 107.492 158.384C101.732 158.384 96.516 156.56 91.844 152.912C87.236 156.688 82.02 158.576 76.196 158.576C73.7 158.576 71.204 158.224 68.708 157.52C66.212 156.752 63.652 155.472 61.028 153.68C58.468 151.888 56.196 149.68 54.212 147.056C52.228 144.368 50.596 140.912 49.316 136.688C48.1 132.4 47.492 127.664 47.492 122.48C47.492 114.096 47.876 107.76 48.644 103.472C49.476 99.184 50.692 96.272 52.292 94.736C53.956 93.2 56.356 92.432 59.492 92.432C62.116 92.432 64.196 92.816 65.732 93.584C67.268 94.288 68.356 95.344 68.996 96.752C69.636 98.16 69.956 99.984 69.956 102.224L70.052 125.648C70.052 131.792 70.532 136.24 71.492 138.992C72.452 141.744 74.34 143.12 77.156 143.12C78.564 143.12 79.62 142.544 80.324 141.392C81.028 140.176 81.508 138.256 81.764 135.632C80.932 131.92 80.516 126.128 80.516 118.256C80.516 113.84 80.612 110.32 80.804 107.696C80.996 105.072 81.284 102.8 81.668 100.88C82.052 98.96 82.692 97.584 83.588 96.752C84.484 95.92 85.476 95.344 86.564 95.024C87.716 94.64 89.284 94.448 91.268 94.448C92.42 94.448 93.412 94.48 94.244 94.544C95.14 94.608 95.972 94.8 96.74 95.12C97.508 95.44 98.148 95.728 98.66 95.984C99.172 96.24 99.652 96.72 100.1 97.424C100.548 98.128 100.9 98.736 101.156 99.248C101.412 99.76 101.636 100.592 101.828 101.744C102.084 102.896 102.244 103.92 102.308 104.816C102.436 105.648 102.5 106.928 102.5 108.656C102.564 110.32 102.596 111.792 102.596 113.072C102.66 114.288 102.692 116.048 102.692 118.352C102.692 126.416 102.276 132.368 101.444 136.208C101.7 138.512 102.18 140.208 102.884 141.296C103.588 142.384 104.676 142.928 106.148 142.928Z"/>
</mask>
<path d="M106.148 142.928C108.644 142.928 110.372 141.584 111.332 138.896C112.292 136.144 112.772 131.696 112.772 125.552L112.964 102.032C112.964 98.64 113.732 96.176 115.268 94.64C116.868 93.04 119.588 92.24 123.428 92.24C125.796 92.24 127.684 92.624 129.092 93.392C130.564 94.16 131.812 95.664 132.836 97.904C133.86 100.144 134.564 103.184 134.948 107.024C135.332 110.864 135.524 115.952 135.524 122.288C135.524 126.064 135.204 129.584 134.564 132.848C133.924 136.112 133.06 138.96 131.972 141.392C130.884 143.824 129.572 146.032 128.036 148.016C126.564 149.936 124.996 151.536 123.332 152.816C121.668 154.096 119.908 155.184 118.052 156.08C116.196 156.912 114.372 157.52 112.58 157.904C110.852 158.224 109.156 158.384 107.492 158.384C101.732 158.384 96.516 156.56 91.844 152.912C87.236 156.688 82.02 158.576 76.196 158.576C73.7 158.576 71.204 158.224 68.708 157.52C66.212 156.752 63.652 155.472 61.028 153.68C58.468 151.888 56.196 149.68 54.212 147.056C52.228 144.368 50.596 140.912 49.316 136.688C48.1 132.4 47.492 127.664 47.492 122.48C47.492 114.096 47.876 107.76 48.644 103.472C49.476 99.184 50.692 96.272 52.292 94.736C53.956 93.2 56.356 92.432 59.492 92.432C62.116 92.432 64.196 92.816 65.732 93.584C67.268 94.288 68.356 95.344 68.996 96.752C69.636 98.16 69.956 99.984 69.956 102.224L70.052 125.648C70.052 131.792 70.532 136.24 71.492 138.992C72.452 141.744 74.34 143.12 77.156 143.12C78.564 143.12 79.62 142.544 80.324 141.392C81.028 140.176 81.508 138.256 81.764 135.632C80.932 131.92 80.516 126.128 80.516 118.256C80.516 113.84 80.612 110.32 80.804 107.696C80.996 105.072 81.284 102.8 81.668 100.88C82.052 98.96 82.692 97.584 83.588 96.752C84.484 95.92 85.476 95.344 86.564 95.024C87.716 94.64 89.284 94.448 91.268 94.448C92.42 94.448 93.412 94.48 94.244 94.544C95.14 94.608 95.972 94.8 96.74 95.12C97.508 95.44 98.148 95.728 98.66 95.984C99.172 96.24 99.652 96.72 100.1 97.424C100.548 98.128 100.9 98.736 101.156 99.248C101.412 99.76 101.636 100.592 101.828 101.744C102.084 102.896 102.244 103.92 102.308 104.816C102.436 105.648 102.5 106.928 102.5 108.656C102.564 110.32 102.596 111.792 102.596 113.072C102.66 114.288 102.692 116.048 102.692 118.352C102.692 126.416 102.276 132.368 101.444 136.208C101.7 138.512 102.18 140.208 102.884 141.296C103.588 142.384 104.676 142.928 106.148 142.928Z" fill="#FB923C"/>
<path d="M111.332 138.896L112.745 139.401L112.748 139.39L111.332 138.896ZM112.772 125.552L111.272 125.54V125.552H112.772ZM112.964 102.032L114.464 102.044V102.032H112.964ZM129.092 93.392L128.374 94.7088L128.386 94.7155L128.398 94.7219L129.092 93.392ZM132.836 97.904L134.2 97.2804V97.2804L132.836 97.904ZM134.948 107.024L136.441 106.875V106.875L134.948 107.024ZM134.564 132.848L133.092 132.559L134.564 132.848ZM128.036 148.016L126.85 147.098L126.846 147.103L128.036 148.016ZM123.332 152.816L124.247 154.005L123.332 152.816ZM118.052 156.08L118.666 157.449L118.685 157.44L118.704 157.431L118.052 156.08ZM112.58 157.904L112.853 159.379L112.874 159.375L112.894 159.371L112.58 157.904ZM91.844 152.912L92.7672 151.73L91.8214 150.991L90.8933 151.752L91.844 152.912ZM68.708 157.52L68.2669 158.954L68.2838 158.959L68.3008 158.964L68.708 157.52ZM61.028 153.68L60.1678 154.909L60.1749 154.914L60.1821 154.919L61.028 153.68ZM54.212 147.056L53.0051 147.947L53.0103 147.954L53.0155 147.961L54.212 147.056ZM49.316 136.688L47.8729 137.097L47.8766 137.11L47.8805 137.123L49.316 136.688ZM48.644 103.472L47.1715 103.186L47.1694 103.197L47.1675 103.208L48.644 103.472ZM52.292 94.736L51.2746 93.6338L51.2638 93.6437L51.2532 93.6539L52.292 94.736ZM65.732 93.584L65.0612 94.9256L65.0839 94.937L65.107 94.9476L65.732 93.584ZM68.996 96.752L70.3616 96.1313L68.996 96.752ZM69.956 102.224H68.456L68.456 102.23L69.956 102.224ZM70.052 125.648H71.552L71.552 125.642L70.052 125.648ZM71.492 138.992L72.9083 138.498L71.492 138.992ZM80.324 141.392L81.6039 142.174L81.6132 142.159L81.6221 142.144L80.324 141.392ZM81.764 135.632L83.2569 135.778L83.2803 135.538L83.2277 135.304L81.764 135.632ZM80.804 107.696L79.308 107.587L80.804 107.696ZM81.668 100.88L80.1971 100.586L81.668 100.88ZM86.564 95.024L86.9873 96.463L87.0129 96.4555L87.0383 96.447L86.564 95.024ZM94.244 94.544L94.129 96.0396L94.1371 96.0402L94.244 94.544ZM96.74 95.12L96.1631 96.5046L96.1631 96.5046L96.74 95.12ZM100.1 97.424L98.8345 98.2293V98.2293L100.1 97.424ZM101.156 99.248L99.8144 99.9188V99.9188L101.156 99.248ZM101.828 101.744L100.348 101.991L100.355 102.03L100.364 102.069L101.828 101.744ZM102.308 104.816L100.812 104.923L100.816 104.984L100.825 105.044L102.308 104.816ZM102.5 108.656H101V108.685L101.001 108.714L102.5 108.656ZM102.596 113.072H101.096V113.111L101.098 113.151L102.596 113.072ZM101.444 136.208L99.978 135.89L99.9261 136.13L99.9532 136.374L101.444 136.208ZM102.884 141.296L101.625 142.111L102.884 141.296ZM106.148 144.428C107.681 144.428 109.073 144.009 110.237 143.104C111.385 142.211 112.197 140.933 112.745 139.401L109.919 138.391C109.507 139.547 108.975 140.285 108.395 140.736C107.831 141.175 107.112 141.428 106.148 141.428V144.428ZM112.748 139.39C113.797 136.384 114.272 131.72 114.272 125.552H111.272C111.272 131.672 110.787 135.904 109.916 138.402L112.748 139.39ZM114.272 125.564L114.464 102.044L111.464 102.02L111.272 125.54L114.272 125.564ZM114.464 102.032C114.464 98.8206 115.197 96.8321 116.329 95.7007L114.207 93.5793C112.267 95.5199 111.464 98.4593 111.464 102.032H114.464ZM116.329 95.7007C117.505 94.5239 119.726 93.74 123.428 93.74V90.74C119.45 90.74 116.231 91.5561 114.207 93.5793L116.329 95.7007ZM123.428 93.74C125.656 93.74 127.266 94.1048 128.374 94.7088L129.81 92.0752C128.102 91.1432 125.936 90.74 123.428 90.74V93.74ZM128.398 94.7219C129.462 95.2767 130.522 96.4504 131.472 98.5276L134.2 97.2804C133.102 94.8776 131.666 93.0433 129.786 92.0621L128.398 94.7219ZM131.472 98.5276C132.4 100.558 133.08 103.415 133.455 107.173L136.441 106.875C136.048 102.953 135.32 99.7305 134.2 97.2804L131.472 98.5276ZM133.455 107.173C133.832 110.942 134.024 115.975 134.024 122.288H137.024C137.024 115.929 136.832 110.786 136.441 106.875L133.455 107.173ZM134.024 122.288C134.024 125.98 133.711 129.402 133.092 132.559L136.036 133.137C136.697 129.766 137.024 126.148 137.024 122.288H134.024ZM133.092 132.559C132.469 135.738 131.635 138.473 130.603 140.779L133.341 142.005C134.485 139.447 135.379 136.486 136.036 133.137L133.092 132.559ZM130.603 140.779C129.56 143.109 128.309 145.214 126.85 147.098L129.222 148.934C130.835 146.85 132.208 144.539 133.341 142.005L130.603 140.779ZM126.846 147.103C125.441 148.935 123.964 150.438 122.417 151.627L124.247 154.005C126.028 152.634 127.687 150.937 129.226 148.929L126.846 147.103ZM122.417 151.627C120.834 152.845 119.161 153.879 117.4 154.729L118.704 157.431C120.655 156.489 122.502 155.347 124.247 154.005L122.417 151.627ZM117.438 154.711C115.668 155.505 113.944 156.078 112.266 156.437L112.894 159.371C114.8 158.962 116.724 158.319 118.666 157.449L117.438 154.711ZM112.307 156.429C110.664 156.733 109.059 156.884 107.492 156.884V159.884C109.253 159.884 111.04 159.715 112.853 159.379L112.307 156.429ZM107.492 156.884C102.077 156.884 97.1838 155.178 92.7672 151.73L90.9208 154.094C95.8482 157.942 101.387 159.884 107.492 159.884V156.884ZM90.8933 151.752C86.5467 155.314 81.6648 157.076 76.196 157.076V160.076C82.3752 160.076 87.9253 158.062 92.7947 154.072L90.8933 151.752ZM76.196 157.076C73.843 157.076 71.4839 156.744 69.1152 156.076L68.3008 158.964C70.9241 159.704 73.557 160.076 76.196 160.076V157.076ZM69.1491 156.086C66.8243 155.371 64.3995 154.166 61.8739 152.441L60.1821 154.919C62.9045 156.778 65.5997 158.133 68.2669 158.954L69.1491 156.086ZM61.8882 152.451C59.4632 150.754 57.303 148.657 55.4085 146.151L53.0155 147.961C55.089 150.703 57.4728 153.022 60.1678 154.909L61.8882 152.451ZM55.4189 146.165C53.5633 143.651 51.9969 140.363 50.7515 136.253L47.8805 137.123C49.1951 141.461 50.8927 145.085 53.0051 147.947L55.4189 146.165ZM50.7591 136.279C49.5864 132.143 48.992 127.548 48.992 122.48H45.992C45.992 127.78 46.6136 132.657 47.8729 137.097L50.7591 136.279ZM48.992 122.48C48.992 114.119 49.3765 107.89 50.1205 103.736L47.1675 103.208C46.3755 107.63 45.992 114.073 45.992 122.48H48.992ZM50.1165 103.758C50.9374 99.5269 52.0846 97.0145 53.3308 95.8181L51.2532 93.6539C49.2994 95.5295 48.0146 98.8411 47.1715 103.186L50.1165 103.758ZM53.3094 95.8382C54.605 94.6423 56.587 93.932 59.492 93.932V90.932C56.125 90.932 53.307 91.7577 51.2746 93.6338L53.3094 95.8382ZM59.492 93.932C61.9949 93.932 63.8145 94.3023 65.0612 94.9256L66.4028 92.2424C64.5775 91.3297 62.2371 90.932 59.492 90.932V93.932ZM65.107 94.9476C66.3475 95.5162 67.1541 96.3247 67.6305 97.3727L70.3616 96.1313C69.5579 94.3633 68.1885 93.0598 66.357 92.2204L65.107 94.9476ZM67.6305 97.3727C68.1514 98.5187 68.456 100.11 68.456 102.224H71.456C71.456 99.8584 71.1206 97.8013 70.3616 96.1313L67.6305 97.3727ZM68.456 102.23L68.552 125.654L71.552 125.642L71.456 102.218L68.456 102.23ZM68.552 125.648C68.552 131.816 69.0272 136.48 70.0757 139.486L72.9083 138.498C72.0368 136 71.552 131.768 71.552 125.648H68.552ZM70.0757 139.486C70.6311 141.078 71.499 142.392 72.7445 143.3C73.9943 144.211 75.4972 144.62 77.156 144.62V141.62C75.9988 141.62 75.1497 141.341 74.5115 140.876C73.869 140.408 73.3129 139.658 72.9083 138.498L70.0757 139.486ZM77.156 144.62C79.0593 144.62 80.6135 143.795 81.6039 142.174L79.0441 140.61C78.6265 141.293 78.0687 141.62 77.156 141.62V144.62ZM81.6221 142.144C82.491 140.643 82.9952 138.46 83.2569 135.778L80.2711 135.486C80.0208 138.052 79.565 139.709 79.0259 140.64L81.6221 142.144ZM83.2277 135.304C82.4338 131.762 82.016 126.109 82.016 118.256H79.016C79.016 126.147 79.4302 132.078 80.3003 135.96L83.2277 135.304ZM82.016 118.256C82.016 113.856 82.1118 110.377 82.3 107.805L79.308 107.587C79.1122 110.263 79.016 113.824 79.016 118.256H82.016ZM82.3 107.805C82.4889 105.224 82.7704 103.017 83.1389 101.174L80.1971 100.586C79.7976 102.583 79.5031 104.92 79.308 107.587L82.3 107.805ZM83.1389 101.174C83.4953 99.3919 84.045 98.3746 84.6087 97.8512L82.5673 95.6528C81.339 96.7934 80.6087 98.5281 80.1971 100.586L83.1389 101.174ZM84.6087 97.8512C85.3481 97.1646 86.1391 96.7125 86.9873 96.463L86.1408 93.5849C84.8129 93.9755 83.6199 94.6754 82.5673 95.6528L84.6087 97.8512ZM87.0383 96.447C87.9714 96.136 89.3566 95.948 91.268 95.948V92.948C89.2114 92.948 87.4606 93.144 86.0897 93.601L87.0383 96.447ZM91.268 95.948C92.3949 95.948 93.3465 95.9794 94.129 96.0396L94.3591 93.0484C93.4775 92.9806 92.4451 92.948 91.268 92.948V95.948ZM94.1371 96.0402C94.8843 96.0936 95.5562 96.2517 96.1631 96.5046L97.3169 93.7354C96.3878 93.3483 95.3957 93.1224 94.3509 93.0478L94.1371 96.0402ZM96.1631 96.5046C96.9121 96.8167 97.5183 97.0902 97.9892 97.3256L99.3308 94.6424C98.7777 94.3658 98.1039 94.0633 97.3169 93.7354L96.1631 96.5046ZM97.9892 97.3256C98.1713 97.4167 98.4697 97.6561 98.8345 98.2293L101.365 96.6187C100.834 95.7839 100.173 95.0633 99.3308 94.6424L97.9892 97.3256ZM98.8345 98.2293C99.2661 98.9076 99.5892 99.4685 99.8144 99.9188L102.498 98.5772C102.211 98.0035 101.83 97.3484 101.365 96.6187L98.8345 98.2293ZM99.8144 99.9188C99.965 100.22 100.161 100.866 100.348 101.991L103.308 101.497C103.111 100.318 102.859 99.3 102.498 98.5772L99.8144 99.9188ZM100.364 102.069C100.608 103.17 100.754 104.119 100.812 104.923L103.804 104.709C103.734 103.721 103.56 102.622 103.292 101.419L100.364 102.069ZM100.825 105.044C100.935 105.757 101 106.942 101 108.656H104C104 106.914 103.937 105.539 103.791 104.588L100.825 105.044ZM101.001 108.714C101.065 110.364 101.096 111.816 101.096 113.072H104.096C104.096 111.768 104.063 110.276 103.999 108.598L101.001 108.714ZM101.098 113.151C101.16 114.327 101.192 116.056 101.192 118.352H104.192C104.192 116.04 104.16 114.249 104.094 112.993L101.098 113.151ZM101.192 118.352C101.192 126.396 100.774 132.215 99.978 135.89L102.91 136.526C103.778 132.521 104.192 126.436 104.192 118.352H101.192ZM99.9532 136.374C100.218 138.754 100.73 140.729 101.625 142.111L104.143 140.481C103.63 139.687 103.182 138.27 102.935 136.042L99.9532 136.374ZM101.625 142.111C102.646 143.69 104.248 144.428 106.148 144.428V141.428C105.104 141.428 104.53 141.078 104.143 140.481L101.625 142.111Z" fill="#37281C" mask="url(#path-3-outside-1_12_96)"/>
<g clip-path="url(#clip0_12_96)">
<path d="M187.207 127.127C185.789 125.369 184.057 120.92 182.319 115.561L177.294 116.089C175.401 116.289 173.704 114.915 173.505 113.021C173.307 111.126 174.68 109.431 176.575 109.23L180.262 108.844C179.661 106.773 179.075 104.677 178.519 102.625L174.549 103.042C172.655 103.241 170.959 101.867 170.76 99.9736C170.561 98.0798 171.934 96.3835 173.828 96.1844L176.739 95.8772C175.783 92.1457 175.009 88.9674 174.538 86.998C174.244 85.77 173.087 84.9549 171.831 85.0871L166.85 85.6106C165.366 85.7666 164.289 87.0957 164.444 88.5812L164.588 89.9355C164.762 91.6076 163.206 92.9849 161.587 92.5286C143.756 87.4961 146.437 71.5392 146.437 71.5392C142.651 67.1546 118.288 89.5741 118.288 89.5741L194.639 151.402C202.735 141.403 191.988 133.07 187.207 127.127Z" fill="#37281C"/>
<path d="M158.081 101.83L152.463 94.7088L153.863 88.9299C153.069 88.3575 152.349 87.759 151.71 87.1373L146.311 89.7274L138.177 85.712L139.673 94.0378L132.212 100.848L142.703 100.47L144.515 110.811L149.625 102.097L158.081 101.83Z" fill="#F79200"/>
<path d="M148.384 96.1956C147.784 96.9366 146.699 97.0495 145.959 96.4505C145.219 95.8515 145.104 94.7665 145.704 94.0255C146.304 93.2844 147.389 93.1716 148.129 93.7706C148.869 94.3695 148.984 95.4548 148.384 96.1956Z" fill="#37281C"/>
<path d="M193.926 151.467C191.642 153.982 188.686 154.015 186.162 153.343C184.84 152.992 183.663 152.45 182.813 151.994C182.389 151.767 182.049 151.562 181.816 151.415C181.7 151.341 181.61 151.282 181.551 151.242C181.521 151.222 181.499 151.207 181.484 151.197L181.476 151.191L122.722 103.613C117.809 99.6347 115.694 96.7982 114.798 94.9975C114.352 94.0999 114.212 93.4647 114.175 93.0757C114.162 92.9343 114.162 92.8244 114.166 92.7451L118.252 90.1871L193.926 151.467Z" fill="#FDBD8E" stroke="#37281C"/>
<path d="M170.76 99.9728C170.56 98.0802 171.934 96.3826 173.828 96.1836L178.973 95.6441C180.865 95.4441 182.563 96.8187 182.762 98.7125C182.961 100.606 181.587 102.303 179.693 102.502L174.55 103.042C172.655 103.24 170.959 101.867 170.76 99.9728Z" fill="#FB923C"/>
<path d="M173.505 113.02C173.306 111.126 174.68 109.43 176.574 109.231L181.718 108.692C183.611 108.491 185.308 109.866 185.507 111.76C185.707 113.653 184.333 115.35 182.439 115.549L177.296 116.09C175.401 116.288 173.704 114.914 173.505 113.02Z" fill="#FB923C"/>
</g>
</g>
</g>
<defs>
<filter id="filter0_d_12_96" x="0.5" y="0" width="236.004" height="236" filterUnits="userSpaceOnUse" color-interpolation-filters="sRGB">
<feFlood flood-opacity="0" result="BackgroundImageFix"/>
<feColorMatrix in="SourceAlpha" type="matrix" values="0 0 0 0 0 0 0 0 0 0 0 0 0 0 0 0 0 0 127 0" result="hardAlpha"/>
<feOffset dy="4"/>
<feGaussianBlur stdDeviation="9"/>
<feComposite in2="hardAlpha" operator="out"/>
<feColorMatrix type="matrix" values="0 0 0 0 0.517647 0 0 0 0 0.454902 0 0 0 0 0.415686 0 0 0 0.25 0"/>
<feBlend mode="normal" in2="BackgroundImageFix" result="effect1_dropShadow_12_96"/>
<feBlend mode="normal" in="SourceGraphic" in2="effect1_dropShadow_12_96" result="shape"/>
</filter>
<filter id="filter1_d_12_96" x="36.492" y="57" width="193.012" height="130" filterUnits="userSpaceOnUse" color-interpolation-filters="sRGB">
<feFlood flood-opacity="0" result="BackgroundImageFix"/>
<feColorMatrix in="SourceAlpha" type="matrix" values="0 0 0 0 0 0 0 0 0 0 0 0 0 0 0 0 0 0 127 0" result="hardAlpha"/>
<feOffset dy="9"/>
<feGaussianBlur stdDeviation="5.5"/>
<feComposite in2="hardAlpha" operator="out"/>
<feColorMatrix type="matrix" values="0 0 0 0 0.156863 0 0 0 0 0.137255 0 0 0 0 0.109804 0 0 0 0.1 0"/>
<feBlend mode="normal" in2="BackgroundImageFix" result="effect1_dropShadow_12_96"/>
<feBlend mode="normal" in="SourceGraphic" in2="effect1_dropShadow_12_96" result="shape"/>
</filter>
<clipPath id="clip0_12_96">
<rect width="100" height="46.5407" fill="white" transform="translate(140.789 59) rotate(39)"/>
</clipPath>
</defs>
</svg>
