<svg width="28" height="28" viewBox="0 0 28 28" fill="none" xmlns="http://www.w3.org/2000/svg">
<path d="M2.33334 8.16671L7.47834 3.02171C7.6954 2.80334 7.95354 2.6301 8.23787 2.51196C8.5222 2.39383 8.82711 2.33313 9.135 2.33337H18.865C19.1729 2.33313 19.4778 2.39383 19.7621 2.51196C20.0465 2.6301 20.3046 2.80334 20.5217 3.02171L25.6667 8.16671" stroke="#301400" stroke-width="2" stroke-linecap="round" stroke-linejoin="round"/>
<path d="M4.66666 14V23.3333C4.66666 23.9522 4.9125 24.5457 5.35008 24.9832C5.78767 25.4208 6.38116 25.6667 7 25.6667H21C21.6188 25.6667 22.2123 25.4208 22.6499 24.9832C23.0875 24.5457 23.3333 23.9522 23.3333 23.3333V14" stroke="#301400" stroke-width="2" stroke-linecap="round" stroke-linejoin="round"/>
<path d="M17.5 25.6666V21C17.5 20.3811 17.2542 19.7876 16.8166 19.35C16.379 18.9125 15.7855 18.6666 15.1667 18.6666H12.8333C12.2145 18.6666 11.621 18.9125 11.1834 19.35C10.7458 19.7876 10.5 20.3811 10.5 21V25.6666" stroke="#301400" stroke-width="2" stroke-linecap="round" stroke-linejoin="round"/>
<path d="M2.33334 8.16663H25.6667" stroke="#301400" stroke-width="2" stroke-linecap="round" stroke-linejoin="round"/>
<path d="M25.6667 8.16663V11.6666C25.6667 12.2855 25.4208 12.879 24.9833 13.3165C24.5457 13.7541 23.9522 14 23.3333 14C22.6517 13.9624 22.0007 13.7045 21.4783 13.265C21.3391 13.1644 21.1718 13.1102 21 13.1102C20.8283 13.1102 20.6609 13.1644 20.5217 13.265C19.9993 13.7045 19.3483 13.9624 18.6667 14C17.985 13.9624 17.334 13.7045 16.8117 13.265C16.6725 13.1644 16.5051 13.1102 16.3333 13.1102C16.1616 13.1102 15.9942 13.1644 15.855 13.265C15.3327 13.7045 14.6816 13.9624 14 14C13.3184 13.9624 12.6674 13.7045 12.145 13.265C12.0058 13.1644 11.8384 13.1102 11.6667 13.1102C11.4949 13.1102 11.3275 13.1644 11.1883 13.265C10.666 13.7045 10.015 13.9624 9.33334 14C8.65169 13.9624 8.00069 13.7045 7.47834 13.265C7.33913 13.1644 7.17175 13.1102 7 13.1102C6.82825 13.1102 6.66088 13.1644 6.52167 13.265C5.99932 13.7045 5.34831 13.9624 4.66667 14C4.04783 14 3.45434 13.7541 3.01675 13.3165C2.57917 12.879 2.33334 12.2855 2.33334 11.6666V8.16663" stroke="#301400" stroke-width="2" stroke-linecap="round" stroke-linejoin="round"/>
</svg>
